<?xml version="1.0" encoding="UTF-8" standalone="no"?>
<!DOCTYPE svg PUBLIC "-//W3C//DTD SVG 1.1//EN" "http://www.w3.org/Graphics/SVG/1.1/DTD/svg11.dtd">
<svg width="100%" height="100%" viewBox="0 0 823 823" version="1.1" xmlns="http://www.w3.org/2000/svg" xmlns:xlink="http://www.w3.org/1999/xlink" xml:space="preserve" xmlns:serif="http://www.serif.com/" style="fill-rule:evenodd;clip-rule:evenodd;stroke-linejoin:round;stroke-miterlimit:2;">
    <g>
        <path d="M716.6,310.8C714.7,311.4 704.7,318.8 704.7,318.8L692.9,326.4L692.4,322.1C692.4,322.1 687.6,312.5 681.7,312.9C681.7,312.9 688.8,321.6 689.7,327.4C690.6,333.2 691,337.2 691,337.2L683.2,344.9L696.2,361.6L726.7,338.8C726.7,338.8 718.5,310.2 716.6,310.8Z" style="fill:rgb(219,161,123);fill-rule:nonzero;"/>
        <path d="M630.1,291C630.1,291 634.9,368.4 645.2,365.6C655.6,362.9 683.4,342.7 683.4,342.7L700.3,361.3C700.3,361.3 648.8,418.6 627.6,395.2C606.5,371.7 630.1,291 630.1,291Z" style="fill:rgb(11,72,112);fill-rule:nonzero;"/>
        <path d="M722.7,310.8L717.4,353.3L696.2,353.8L691.1,310.8L722.7,310.8Z" style="fill:rgb(255,190,85);fill-rule:nonzero;"/>
        <path d="M634.6,421.3C634.6,421.3 654.9,564.8 645.5,595.3C636.1,625.8 632.4,653.3 632.4,653.3L585.2,639.5C585.2,639.5 600.8,567.7 603.2,553.9C605.5,540.1 581.4,428 581.4,428L634.6,421.3Z" style="fill:rgb(11,72,112);fill-rule:nonzero;"/>
        <path d="M612.3,431.6L590,662.3L544.9,662.3C544.9,662.3 559.5,418.1 556.9,416C554.3,414.1 612.3,431.6 612.3,431.6Z" style="fill:rgb(11,72,112);fill-rule:nonzero;"/>
        <path d="M527.8,295.7C527.8,295.7 535.9,258.4 575,262.3L610.8,265.9C610.8,265.9 635.4,276.3 631.9,305.6C628.5,334.9 626.8,361.7 627.7,366.8C628.6,372 637.2,418.1 634.6,421.3C608.8,452.7 542.9,402.6 542.9,402.6L527.8,295.7Z" style="fill:rgb(255,190,85);fill-rule:nonzero;"/>
        <path d="M727.3,311.4L687.3,311.4L687.3,307.2L691.1,307.2L691.1,300.6L723.6,305.4L723.7,307.8L727.3,307.8L727.3,311.9" style="fill:rgb(14,83,140);fill-rule:nonzero;"/>
        <path d="M575,262.3L565.9,480.2L538.8,465.5L541.6,272.2C541.6,272.2 548.9,259.7 575,262.3Z" style="fill:rgb(14,83,140);fill-rule:nonzero;"/>
        <path d="M575,262.3C575,262.3 567,280.3 567.8,286.8C568.6,293.4 571.4,307.2 571.4,307.2C571.4,307.2 565.5,310.8 566,313.9C566.4,317 571.1,366 571.1,366L575,262.3Z" style="fill:rgb(11,72,112);fill-rule:nonzero;"/>
        <path d="M616.2,700.9L619.3,685.3L586.4,672.1L581.2,695.3L583,695.6C590.4,699 626.3,715.6 631.9,716.1C638.1,716.7 616.2,700.9 616.2,700.9Z" style="fill:rgb(11,72,112);fill-rule:nonzero;"/>
        <g>
            <path d="M538,473.8L541.6,479C541.6,479 543.3,482.5 547.5,487.8C548.6,489.2 549.9,490.4 551.4,491.3C553.2,492.4 555.7,493.8 557.3,494.2C559.3,494.6 559.7,497.2 558,498C556.3,498.7 550.9,497.7 545.7,493.7C540.5,489.8 542.9,499.7 543.8,503.4C544.6,507 546.6,518.4 545.7,519.6C544.4,521.3 542.3,520.1 541.6,516.5C540.9,512.8 537.9,502 536,502.6C534.1,503.1 538.5,521.6 538.5,521.6C538.5,521.6 540.1,525.4 537.9,526.1C534,527.3 530.7,507.3 530.5,505.4C530.3,504.1 528.2,504.6 528.5,506C528.8,507.5 533.3,524.3 529.4,525.6C526.3,526.6 526.6,509.2 523.7,506.2C520.8,503.2 524.9,519.4 521.9,520.2C520.8,520.5 519.9,520.6 518.9,510.9C517.9,501 519.5,473.9 519.5,473.9L538.3,474.1" style="fill:rgb(255,227,202);fill-rule:nonzero;"/>
        </g>
        <path d="M603.3,265C602.9,261.9 604.5,249 604.5,249C604.5,249 616.3,248.1 617.4,236.5C618.5,224.8 618.6,197.8 618.6,197.8L597.5,186.6L573.3,203.7L567.8,216.5L575,247L575,262.3L603.3,265Z" style="fill:rgb(219,161,123);fill-rule:nonzero;"/>
        <path d="M604.5,249C604.5,249 596.6,248.8 589.2,243.3C589.2,243.3 592.4,252 604.2,251.9L604.5,249Z" style="fill:rgb(198,140,107);fill-rule:nonzero;"/>
        <path d="M568.2,229.3C571.4,236.4 573.3,246.8 573.3,246.8C575,250 575.6,239.8 575.6,239.8C575.6,239.8 577.1,230 575.7,226.2C575.7,226.2 569.7,228.1 568.4,217.4C567.7,212.1 575.7,209.6 577.9,216L582.9,216.5C582.9,216.5 583.3,196.5 594.8,200.2C594.8,200.2 603.1,205.3 608.1,202.2C613.1,199.1 612.7,198 612.7,198C612.7,198 615.1,203.3 621.5,199.8C627.9,196.3 628.7,190.2 626.5,187.3C625.2,185.6 624,183.7 621.9,183.3C619.8,182.9 617.5,183.8 616.2,185.4C617.8,183.1 616.7,179.7 614.3,178.1C612,176.6 608.9,176.7 606.3,177.7C603.7,178.7 601.5,180.5 599.4,182.3C597.9,178.1 593.4,175.1 589,175.5C584.5,175.9 580.6,179.5 579.8,183.9C577.4,180.9 572.8,180.2 569.3,181.9C565.8,183.6 563.6,187.2 562.9,191C562.2,194.8 563,198.7 564.5,202.3C561.8,200.8 558.1,201.9 556.3,204.4C554.5,206.9 554.5,210.4 555.8,213.2C557.1,216 559.6,218.1 562.3,219.5C560.3,221.1 559.6,224.3 560.9,226.6C562.2,228.9 565.2,230.1 567.6,229.2" style="fill:rgb(14,83,140);fill-rule:nonzero;"/>
        <path d="M518.5,477.7L527.8,295.6C530.7,284.4 536.9,275.8 544.9,268.6L544.9,480.1L518.5,477.7Z" style="fill:rgb(14,83,140);fill-rule:nonzero;"/>
        <path d="M603.3,265C603.3,265 627.7,277.1 626.6,318C625.4,358.9 641.3,474.5 641.3,474.5L661.7,470.4C661.7,470.4 638.1,360.8 637.1,341.6C636.1,322 637.8,294.3 624.6,275.2C615.1,261.5 603.3,265 603.3,265Z" style="fill:rgb(14,83,140);fill-rule:nonzero;"/>
        <g>
            <path d="M544.9,480.2C547.4,436.2 546.8,350.8 549.3,306.7" style="fill:rgb(11,72,112);fill-rule:nonzero;"/>
        </g>
        <path d="M616.4,684.2C616,684 624.7,651.1 624.7,651.1L595.8,642.7L589.7,673.5L616.4,684.2Z" style="fill:rgb(219,161,123);fill-rule:nonzero;"/>
        <rect x="549.8" y="662.4" width="32.9" height="25.8" style="fill:rgb(219,161,123);"/>
        <path d="M585.9,702.2L582.9,686.6L547.4,686.6L551.1,709.6L553,709.7C561.1,710.1 600.6,712.2 606,710.6C612.2,708.7 585.9,702.2 585.9,702.2Z" style="fill:rgb(11,72,112);fill-rule:nonzero;"/>
        <g>
            <path d="M307.9,196C310.7,205.4 313.5,214.8 316.3,224.2C316.7,225.5 317.1,226.8 317,228.1C316.9,232.1 313.2,235.2 309.3,235.9C305.4,236.6 301.4,235.6 297.6,234.5C296.6,238.5 291.8,240.2 287.7,241C269.5,244.4 250.2,242 233.4,234.2C240.6,223.8 246.5,212.6 250.9,200.7C265.2,201.3 279.5,202 293.8,202.6C296.3,202.7 298.9,202.8 301.3,202C303.7,201.1 305.8,199.1 306,196.6" style="fill:rgb(14,83,140);fill-rule:nonzero;"/>
        </g>
        <path d="M141.9,319.7L137.7,314.8C137.7,314.8 134.7,312.3 130.4,306.7C129.3,305.3 128.5,303.6 127.9,301.9C127.2,299.8 126.4,297 126.5,295.3C126.6,293.2 124.1,292.2 122.9,293.7C121.7,295.2 121.5,300.9 124.1,307C126.7,313.1 117.4,308.3 114,306.5C110.6,304.8 99.8,300 98.4,300.6C96.4,301.5 97,303.8 100.5,305.5C104,307.2 113.9,312.8 113,314.5C112,316.2 94.8,307.3 94.8,307.3C94.8,307.3 91.4,304.8 90.2,306.8C88,310.4 107.1,318.6 108.9,319.3C110.2,319.8 109.2,321.8 107.8,321.1C106.4,320.5 90.8,311.8 88.5,315.4C86.8,318.2 104.1,322.3 106.3,325.9C108.5,329.5 93.5,321.5 91.9,324.2C91.3,325.2 91,326.1 100.4,329.4C109.9,332.8 137.3,338 137.3,338L141.7,319.2" style="fill:rgb(255,149,126);fill-rule:nonzero;"/>
        <path d="M219.2,275.3C219.2,275.3 203.6,320.4 198.8,320.8C165.9,323.8 130.1,309.6 130.1,309.6L121.1,335C121.1,335 214.3,376.7 234.3,336.5C255.6,293.9 254.5,287.2 254.5,287.2L219.2,275.3Z" style="fill:rgb(252,210,177);fill-rule:nonzero;"/>
        <path d="M221.3,530.3C238,607 347.8,678.3 347.8,678.3L366.5,655.4C366.5,655.4 278.2,576.7 274.5,541.7C270.7,506.7 300,451.8 300,451.8L269.6,438.9L221.3,530.3Z" style="fill:rgb(11,72,112);fill-rule:nonzero;"/>
        <path d="M258.4,251C258.9,247.8 257.7,234.6 257.7,234.6C257.7,234.6 245.6,233.3 244.9,221.3C244.2,209.3 244.9,181.7 244.9,181.7L266.9,170.9L291.1,189.2L287.4,249.1L258.4,251Z" style="fill:rgb(255,227,202);fill-rule:nonzero;"/>
        <path d="M289.4,198.6C289.4,198.6 269.6,196.7 266.2,178.8L244.8,198.6C244.8,198.6 238.3,185.3 250.2,173C262.1,160.7 270.2,163.2 274.9,163.2C279.2,163.2 301.2,167.9 307.7,192.8C308.2,194.6 308.6,199.1 308.9,201.1L289.4,198.6Z" style="fill:rgb(14,83,140);fill-rule:nonzero;"/>
        <path d="M257.8,234.7C257.8,234.7 265.9,234.8 273.7,229.3C273.7,229.3 270.1,238.1 258.1,237.6L257.8,234.7Z" style="fill:rgb(252,210,177);fill-rule:nonzero;"/>
        <path d="M232.9,386.1C232.9,390.4 234.4,396.3 234.4,396.3L319.4,420.8C319.4,420.8 325.5,382.4 310,361C302.9,351.2 304.5,337.4 307.4,325.6L317.4,285.3L304,247.4L250.5,251C250.5,251 219.5,247.9 208.7,288.9L228.6,318.8L228.8,330.1L232.9,386.1Z" style="fill:rgb(255,190,85);fill-rule:nonzero;"/>
        <path d="M315.8,371.1C316.7,371.1 332.1,405.6 318.2,426.1C316.9,428 313.7,432.7 309.4,439.4C288.8,471 241.8,545.3 240.2,556.2C238.3,569.4 200.3,707.9 200.3,707.9L172,703.4L195.1,546.3L232.9,386.1L315.8,371.1Z" style="fill:rgb(14,83,140);fill-rule:nonzero;"/>
        <path d="M266.7,177.4C266.7,177.4 262.3,185.9 264.2,192.3L245,197.3C245,197.2 240.6,172.9 266.7,177.4Z" style="fill:rgb(14,83,140);fill-rule:nonzero;"/>
        <path d="M307.9,199.3C307.9,199.3 310.1,226.9 288.8,231.8L290.2,198.5L307.9,199.3Z" style="fill:rgb(14,83,140);fill-rule:nonzero;"/>
        <path d="M220.7,327.9L173,348L94.9,349.7L56.9,285.2L137.2,279.8L172,342.2L220.4,323.4L220.7,327.9Z" style="fill:rgb(255,190,85);fill-rule:nonzero;"/>
        <path d="M212.1,280.5L198.7,313.2L228.7,328.1L231.5,299.5L212.1,280.5Z" style="fill:rgb(255,190,85);fill-rule:nonzero;"/>
        <path d="M269.9,245L259,249.7L261.2,271.7L275,247L269.9,245Z" style="fill:rgb(255,227,202);fill-rule:nonzero;"/>
        <g>
            <path d="M169.4,703.4C169.4,703.4 144.5,710 150.7,711.9C156.9,713.8 200,709.1 200,709.1L201.4,704.2L169.4,703.4Z" style="fill:rgb(14,83,140);fill-rule:nonzero;"/>
            <path d="M200,709.1L208.8,685.4L170.6,685.4L169.4,703.4L200,709.1Z" style="fill:rgb(14,83,140);fill-rule:nonzero;"/>
        </g>
        <g>
            <path d="M348.1,679.9C348.1,679.9 341.8,704.9 346.5,700.4C351.1,695.9 368.1,656 368.1,656L364.5,652.4L348.1,679.9Z" style="fill:rgb(11,72,112);fill-rule:nonzero;"/>
            <path d="M368,656L351.5,636.8L333,670.1L348.1,679.9L368,656Z" style="fill:rgb(11,72,112);fill-rule:nonzero;"/>
        </g>
        <path d="M292.5,213.7C292.4,211.7 292.4,209.6 293.1,207.8C293.8,205.9 295.4,204.3 297.4,204.1C299.7,203.9 301.9,205.8 302.3,208C302.7,210.3 301.3,212.6 299.3,213.8C297.3,214.9 294.8,214.9 292.6,214" style="fill:rgb(255,227,202);fill-rule:nonzero;"/>
        <path d="M278.9,387.7C278.9,387.7 277.8,277 281.7,268.6C281.7,268.6 285.8,247.8 301.7,247.4L294.6,248C294.6,248 280.2,247 276,275.3C271.9,303.6 272.1,388.6 272.1,388.6L278.9,387.7Z" style="fill:rgb(14,83,140);fill-rule:nonzero;"/>
        <path d="M724.6,339.6C732,340.3 722.7,320 722.7,320C722.7,320 702.7,318.6 702.5,319.7C702.3,320.8 702.4,322.6 704,323C705.6,323.4 718.1,325.1 718.1,325.1C718.1,325.1 705.1,325.7 705.3,327.1C705.7,329.2 707.2,329.4 711.1,330C714.4,330.5 721.6,330.7 721.6,330.7C721.6,330.7 707.9,331 708.2,331.9C708.5,332.8 707.6,335.6 712.3,334.9C723,333.5 724.6,339.6 724.6,339.6Z" style="fill:rgb(219,161,123);fill-rule:nonzero;"/>
        <path d="M248.1,391.6C248.1,391.6 243.8,264.4 247.2,251L242.9,251C242.9,251 239.1,261.9 239.8,292.4C240.3,310.7 239.8,391.6 239.8,391.6L248.1,391.6Z" style="fill:rgb(14,83,140);fill-rule:nonzero;"/>
        <path d="M197.4,335.2C197.4,335.2 176.6,348.4 172,348.3C167.5,348.2 154.4,347.9 155.8,349.7C157.2,351.5 172,354 172,354L197.4,335.2Z" style="fill:rgb(255,227,202);fill-rule:nonzero;"/>
        <path d="M198.9,363C198.9,363 297.4,389.5 310.9,346.7C325.2,301.3 325.4,313.1 325.4,313.1L294.5,283.3C294.5,283.3 277.9,335.7 273.2,336.9C247.3,343.5 217.9,339.3 207.5,337.4C206.3,336.4 205,335.3 203.4,333.8C202.1,332.6 201,331.1 200.2,329.5C199.2,327.5 198,324.9 197.8,323.2C197.5,321.1 194.9,320.5 194,322.1C193.1,323.7 193.7,329.4 197.3,335C197.3,335 173.8,350.1 171.9,353.7L198.9,363Z" style="fill:rgb(255,227,202);fill-rule:nonzero;"/>
        <path d="M304,247.4C304,247.4 326.5,251.7 327.4,287.1C328.3,322.5 314,349.6 314,349.6L275.8,329.7L304,247.4" style="fill:rgb(255,190,85);fill-rule:nonzero;"/>
        <path d="M500.2,596.8L397,596.8C392.2,596.8 388.3,592.9 388.3,588.1C388.3,583.3 392.2,579.4 397,579.4L500.1,579.4C504.9,579.4 508.8,583.3 508.8,588.1C508.9,592.9 505,596.8 500.2,596.8Z" style="fill:rgb(211,211,211);fill-rule:nonzero;"/>
        <g>
            <g transform="matrix(6.12323e-17,-1,1,6.12323e-17,-230.772,1173.93)">
                <rect x="467.2" y="658" width="8.8" height="88.8" style="fill:rgb(11,72,112);"/>
            </g>
            <path d="M435.4,705C436.2,709.6 433.1,713.9 428.5,714.6C423.9,715.4 419.6,712.3 418.9,707.7C418.1,703.1 421.2,698.8 425.8,698.1C430.4,697.3 434.7,700.4 435.4,705Z" style="fill:rgb(11,72,112);fill-rule:nonzero;"/>
            <rect x="466.8" y="591.1" width="8.8" height="110.4" style="fill:rgb(11,72,112);"/>
            <path d="M524.2,705C525,709.6 521.9,713.9 517.3,714.6C512.7,715.4 508.4,712.3 507.7,707.7C506.9,703.1 510,698.8 514.6,698.1C519.2,697.3 523.5,700.4 524.2,705Z" style="fill:rgb(11,72,112);fill-rule:nonzero;"/>
        </g>
        <path d="M527.2,596.8L429.8,596.8C423.2,596.8 418.4,590.3 420.3,583.8L466.8,423.4C468,419.1 471.9,416.1 476.3,416.1L573.7,416.1C580.3,416.1 585.1,422.6 583.2,429.1L536.7,589.5C535.5,593.9 531.6,596.8 527.2,596.8Z" style="fill:rgb(211,211,211);fill-rule:nonzero;"/>
        <path d="M513.8,596.8L428.9,596.8C422.3,596.8 417.5,590.3 419.4,583.8L465.9,423.4C467.1,419.1 471,416.1 475.4,416.1L560.3,416.1C566.9,416.1 571.7,422.6 569.8,429.1L523.3,589.5C522.1,593.9 518.2,596.8 513.8,596.8Z" style="fill:rgb(242,242,242);fill-rule:nonzero;"/>
        <path d="M527.2,596.8L424,596.8C419.2,596.8 415.3,592.9 415.3,588.1C415.3,583.3 419.2,579.4 424,579.4L527.1,579.4C531.9,579.4 535.8,583.3 535.8,588.1C535.9,592.9 532,596.8 527.2,596.8Z" style="fill:rgb(211,211,211);fill-rule:nonzero;"/>
        <path d="M441.9,460.6L419,521.5L424.4,533.4L455.3,528L464.1,462.9L441.9,460.6Z" style="fill:rgb(252,210,177);fill-rule:nonzero;"/>
        <path d="M455.8,431C455.8,431 437.7,440.5 433.7,471.7L457.6,484.8L455.8,431Z" style="fill:rgb(42,148,244);fill-rule:nonzero;"/>
        <path d="M485,419.1L456.5,431.1L434,531.2L509.2,560.8L549.3,446.6C549.3,446.6 542.8,422.8 505.2,416.7L485,419.1Z" style="fill:rgb(42,148,244);fill-rule:nonzero;"/>
        <path d="M561,536.6C561,535.3 560.2,527.4 559.8,526.1L547.4,446.8C545,435.9 532.8,430.4 523.1,435.8C515.9,439.8 512.7,448.3 515.5,456L530.2,524.1L561,536.6Z" style="fill:rgb(255,227,202);fill-rule:nonzero;"/>
        <path d="M544.1,519.7L460.2,513.2L456,528L536.8,555.3C549.2,559.5 561.9,549.7 561,536.6C560.4,527.6 553.2,520.4 544.1,519.7Z" style="fill:rgb(255,227,202);fill-rule:nonzero;"/>
        <path d="M539,433.4C539,433.4 549.7,438 554.3,465.8L516.5,477.4C516.5,477.4 491.8,449.7 518.2,431.2L539,433.4Z" style="fill:rgb(42,148,244);fill-rule:nonzero;"/>
        <path d="M433.9,528.9C437,537.1 452.5,537.5 460.8,534.4C469,531.3 477.5,526.6 474.4,518.3C471.3,510.1 457.6,505.2 448.6,507.2C437.7,509.7 430.8,520.6 433.9,528.9Z" style="fill:rgb(255,227,202);fill-rule:nonzero;"/>
        <path d="M479.6,540.1L419.7,532.4L420.6,525.6L480.5,533.3C482.4,533.5 483.7,535.2 483.4,537.1C483.1,539 481.4,540.3 479.6,540.1Z" style="fill:rgb(242,242,242);fill-rule:nonzero;"/>
        <path d="M427.6,533.4L348.2,523.2C343.6,522.6 340,519.1 339.4,514.5L331.1,456.9C330.4,451.8 334.7,447.4 339.8,448.1L412.7,457.5C415.8,457.9 418.2,460.3 418.6,463.3L427.6,533.4Z" style="fill:rgb(242,242,242);fill-rule:nonzero;"/>
        <path d="M332.7,685.5L312.1,694L299.1,695C293.1,695.4 288.1,699.8 286.9,705.6L286.3,708.3L356.9,717.1L358.3,688.7L332.7,685.5Z" style="fill:rgb(11,72,112);fill-rule:nonzero;"/>
        <path d="M358.3,688.7L365.2,657.8L339.7,654.3L332.7,685.5L358.3,688.7Z" style="fill:rgb(255,227,202);fill-rule:nonzero;"/>
        <path d="M509.2,560.8C509.2,560.8 507.2,577.9 476.5,580.2L402.7,580.2L367.9,677.3L331.3,671.4L367.9,528.8L451.8,538.1L509.2,560.8Z" style="fill:rgb(11,72,112);fill-rule:nonzero;"/>
        <path d="M273.6,629.7L251.5,626.4L239.8,620.5C234.4,617.8 227.9,619 223.8,623.3L221.9,625.3L277.9,669.1L293.7,645.5L273.6,629.7Z" style="fill:rgb(14,83,140);fill-rule:nonzero;"/>
        <path d="M293.9,645.6L313.1,621.2L292.9,605.1L273.6,629.7L293.9,645.6Z" style="fill:rgb(255,227,202);fill-rule:nonzero;"/>
        <path d="M434,531.2L377.1,514.2C374.7,513.5 372.4,512.6 370,511.8C365.1,509.9 352.7,507.3 343.1,522C330.8,540.9 281.5,611.9 281.5,611.9L311.6,634.1L377.3,550.4C382.8,542.8 391.6,538.3 401,538.3L451.8,538.2L434,531.2Z" style="fill:rgb(14,83,140);fill-rule:nonzero;"/>
        <path d="M507.2,387.9C508.2,386 525.8,354.6 509.7,346.7C509.7,346.7 507.6,330.1 489.1,331.9C470.6,333.7 475.6,339.1 463.8,336.4C452,333.7 440.9,339.8 441.8,349.7C442.7,359.6 450.2,363.8 463.8,361.4C477.4,359 488.2,360.8 488.2,360.8L499.6,364.1L507.2,387.9Z" style="fill:rgb(255,190,85);fill-rule:nonzero;"/>
        <g>
            <path d="M509.4,421.9L508,382L480.4,391.8L482.6,423.8C483.1,431.2 487.2,437 494.6,436.5L496.9,436.4C504.3,435.7 509.9,429.3 509.4,421.9Z" style="fill:rgb(255,227,202);fill-rule:nonzero;"/>
        </g>
        <path d="M505.6,387.5C505.6,387.5 510.8,420.8 482.4,422.7L481.1,406.9L505.6,387.5Z" style="fill:rgb(252,210,177);fill-rule:nonzero;"/>
        <path d="M482.2,415.3L483.2,415.3C497.4,414.6 508.3,402.6 507.6,388.4L506.2,359.4C506,355.7 502.9,352.9 499.2,353.1L465.4,354.7C458.9,355 453.8,360.6 454.1,367.1L455.2,390.8C456,405 468,415.9 482.2,415.3Z" style="fill:rgb(255,227,202);fill-rule:nonzero;"/>
        <path d="M501.1,379.7C501.3,384.5 505.4,388.2 510.2,387.9C515,387.7 518.7,383.6 518.4,378.8C518.2,374 514.1,370.3 509.3,370.6C504.6,370.8 500.9,374.9 501.1,379.7Z" style="fill:rgb(255,227,202);fill-rule:nonzero;"/>
        <path d="M497,356.5L498.7,388.8C498.9,391.7 497.7,394.7 495.2,396.3C493.7,397.4 492.5,398.8 489.8,398.4C482.1,397.3 485.7,391.6 470,392.4C455.7,393.2 456.8,401.1 456.8,401.1C456.8,401.1 459.6,416.2 479.2,416.9C498.8,417.6 508.6,405.2 506.3,388.7L504.4,354.6L497,356.5Z" style="fill:rgb(255,190,85);fill-rule:nonzero;"/>
        <path d="M455.1,362C455.1,362 464.2,363.4 477.5,360.2C490.7,356.9 501.2,367.6 501.2,367.6C501.2,367.6 504,372.5 504.7,372.4C505.4,372.3 509.4,370.7 509.4,370.7L509.2,355.8L499.5,348.2L472.6,347.1L456.7,350.6L455.1,362Z" style="fill:rgb(255,190,85);fill-rule:nonzero;"/>
    </g>
</svg>
