<svg width="55" height="38" viewBox="0 0 55 38" fill="none" xmlns="http://www.w3.org/2000/svg">
<g clip-path="url(#clip0_12_15)">
<path d="M52.3537 0H2.64633C1.1848 0 0 1.16338 0 2.59847V7.85771C0 9.2928 1.1848 10.4562 2.64633 10.4562H52.3537C53.8152 10.4562 55 9.2928 55 7.85771V2.59847C55 1.16338 53.8152 0 52.3537 0Z" fill="#F6F8FF"/>
<path d="M52.3537 13.7729H2.64633C1.1848 13.7729 0 14.9363 0 16.3714V21.6306C0 23.0657 1.1848 24.2291 2.64633 24.2291H52.3537C53.8152 24.2291 55 23.0657 55 21.6306V16.3714C55 14.9363 53.8152 13.7729 52.3537 13.7729Z" fill="#F6F8FF"/>
<path d="M52.3537 27.5458H2.64633C1.1848 27.5458 0 28.7092 0 30.1442V35.4035C0 36.8386 1.1848 38.002 2.64633 38.002H52.3537C53.8152 38.002 55 36.8386 55 35.4035V30.1442C55 28.7092 53.8152 27.5458 52.3537 27.5458Z" fill="#F6F8FF"/>
</g>
<defs>
<clipPath id="clip0_12_15">
<rect width="55" height="38" fill="white"/>
</clipPath>
</defs>
</svg>
