<svg width="64" height="68" viewBox="0 0 64 68" fill="none" xmlns="http://www.w3.org/2000/svg">
<g clip-path="url(#clip0_109_605)">
<path d="M47.3914 9.8814C38.2259 4.42436 26.4034 7.37586 20.9868 16.4733C16.2876 24.366 17.9558 34.2899 24.4638 40.3437L14.9093 56.3912C13.8886 58.1055 14.4616 60.3299 16.1887 61.3582L17.0082 61.8461C18.7353 62.8745 20.9639 62.3181 21.9846 60.6038L31.5391 44.5563C39.9628 47.3927 49.4823 44.1299 54.1816 36.2372C59.5981 27.1398 56.5587 15.3395 47.3914 9.8814ZM30.6682 37.969C24.0623 34.0359 21.8736 25.5325 25.7764 18.9774C29.6793 12.4223 38.2009 10.2934 44.805 14.2254C51.4091 18.1574 53.5996 26.6619 49.6968 33.217C45.7939 39.7721 37.2734 41.8992 30.6693 37.9672L30.6682 37.969Z" fill="#131B30"/>
</g>
<defs>
<clipPath id="clip0_109_605">
<rect width="38.6329" height="60.1955" fill="white" transform="translate(30.7949) rotate(30.7693)"/>
</clipPath>
</defs>
</svg>
