<svg width="68" height="65" viewBox="0 0 68 65" fill="none" xmlns="http://www.w3.org/2000/svg">
<g clip-path="url(#clip0_12_2)">
<path d="M35.3144 14.3504C34.9486 14.0697 34.4845 13.9137 34.0075 13.9137C33.5305 13.9137 33.0663 14.0677 32.7006 14.3504L20.4614 23.7835L12.4852 29.9078V29.9331L11.1333 30.9743C10.8018 31.2297 10.6114 31.6041 10.6114 31.998V63.6605C10.6114 64.4014 11.2702 65 12.0809 65H55.887C56.6998 65 57.3565 64.3995 57.3565 63.6605V31.9609C57.3565 31.5671 57.1661 31.1927 56.8346 30.9373L35.3122 14.3504H35.3144Z" fill="#F6F8FF"/>
<path d="M67.0781 29.0419L65.5081 30.7343C64.1177 32.2318 61.6601 32.4209 60.0152 31.1535L36.5229 13.0459C35.0705 11.9267 32.9444 11.9267 31.4899 13.0459L19.2764 22.4575L19.2528 22.477L10.6093 29.1121V29.1394L7.98047 31.1633C6.33774 32.4307 3.87793 32.2415 2.48974 30.7441L0.919732 29.0517C-0.470598 27.5542 -0.263118 25.312 1.37961 24.0446L26.089 5.00303L31.492 0.838284C32.9444 -0.280893 35.0727 -0.280893 36.525 0.838284L41.9281 5.00303L66.6203 24.0349C68.2631 25.3022 68.4705 27.5425 67.0802 29.0419H67.0781Z" fill="#F6F8FF"/>
<path d="M19.255 22.4771L10.6114 29.1395V29.1122L19.255 22.4771Z" fill="#F6F8FF"/>
</g>
<defs>
<clipPath id="clip0_12_2">
<rect width="68" height="65" fill="white"/>
</clipPath>
</defs>
</svg>
