<svg width="57" height="41" viewBox="0 0 57 41" fill="none" xmlns="http://www.w3.org/2000/svg">
<g clip-path="url(#clip0_12_8)">
<path d="M47.5402 15.0454C43.4343 15.0454 40.1057 11.6774 40.1057 7.52271C40.1057 3.36803 43.4343 0 47.5402 0C51.6462 0 54.9747 3.36803 54.9747 7.52271C54.9747 11.6774 51.6462 15.0454 47.5402 15.0454Z" fill="#F6F8FF"/>
<path d="M11.1164 15.0454C7.01047 15.0454 3.68193 11.6774 3.68193 7.52271C3.68193 3.36803 7.01047 0 11.1164 0C15.2224 0 18.5509 3.36803 18.5509 7.52271C18.5509 11.6774 15.2224 15.0454 11.1164 15.0454Z" fill="#F6F8FF"/>
<path d="M29.3373 16.315C25.0874 16.315 21.6421 12.8289 21.6421 8.52851C21.6421 4.22814 25.0874 0.742004 29.3373 0.742004C33.5873 0.742004 37.0325 4.22814 37.0325 8.52851C37.0325 12.8289 33.5873 16.315 29.3373 16.315Z" fill="#F6F8FF"/>
<path d="M24.3172 16.5996C25.7941 17.4703 27.5098 17.9693 29.3386 17.9693C30.9336 17.9693 32.4426 17.5885 33.7821 16.9141C36.8502 17.9004 39.1297 19.8197 39.1297 22.6721V40.9974H17.833V22.6721C17.833 19.4767 20.6931 17.4521 24.3172 16.5983V16.5996Z" fill="#F6F8FF"/>
<path d="M41.6969 23.4102C41.6969 20.9282 40.5719 18.7814 38.5133 17.187C39.6152 16.3241 41.0741 15.703 42.6896 15.3222C44.1164 16.163 45.7731 16.6464 47.5402 16.6464C49.0813 16.6464 50.539 16.2786 51.8335 15.6276C54.7975 16.5788 57 18.4332 57 21.1894V38.8948H41.6969V23.4102Z" fill="#F6F8FF"/>
<path d="M6.26455 15.3209C7.69135 16.1617 9.34803 16.6451 11.1151 16.6451C12.6562 16.6451 14.1139 16.2773 15.4084 15.6263C16.5783 16.0019 17.6276 16.519 18.4713 17.1753C16.4075 18.7698 15.2633 20.923 15.2633 23.4102V38.8948H-3.8147e-06V21.1894C-3.8147e-06 18.1018 2.76369 16.1461 6.26455 15.3222V15.3209Z" fill="#F6F8FF"/>
</g>
<defs>
<clipPath id="clip0_12_8">
<rect width="57" height="41" fill="white" transform="matrix(-1 0 0 1 57 0)"/>
</clipPath>
</defs>
</svg>
